<svg id="visual" viewBox="0 0 2560 1440" width="2560" height="1440" xmlns="http://www.w3.org/2000/svg" xmlns:xlink="http://www.w3.org/1999/xlink" version="1.1"><g stroke-width="1" stroke-linejoin="bevel"><path d="M1268 681L1242 543L1092.1 581Z" fill="#1c1b1d" stroke="#1c1b1d"></path><path d="M1092.1 581L1118.1 742L1268 681Z" fill="#0f0f10" stroke="#0f0f10"></path><path d="M1092.1 581L954.3 693L1118.1 742Z" fill="#1e1d1f" stroke="#1e1d1f"></path><path d="M1449.9 856L1436.9 692L1268 681Z" fill="#1c1b1d" stroke="#1c1b1d"></path><path d="M1268 681L1449.9 541L1242 543Z" fill="#0c0c0e" stroke="#0c0c0e"></path><path d="M954.3 693L1127.1 885L1118.1 742Z" fill="#131314" stroke="#131314"></path><path d="M1118.1 742L1305 912L1268 681Z" fill="#171718" stroke="#171718"></path><path d="M1436.9 692L1449.9 541L1268 681Z" fill="#171718" stroke="#171718"></path><path d="M952.3 398L911.3 542L1092.1 581Z" fill="#09090b" stroke="#09090b"></path><path d="M1092.1 581L911.3 542L954.3 693Z" fill="#111112" stroke="#111112"></path><path d="M1088.1 320L1092.1 581L1242 543Z" fill="#0f0f10" stroke="#0f0f10"></path><path d="M1449.9 541L1296 359L1242 543Z" fill="#19181a" stroke="#19181a"></path><path d="M1127.1 885L1305 912L1118.1 742Z" fill="#1a1a1b" stroke="#1a1a1b"></path><path d="M1296 359L1088.1 320L1242 543Z" fill="#0f0f10" stroke="#0f0f10"></path><path d="M1088.1 320L952.3 398L1092.1 581Z" fill="#151516" stroke="#151516"></path><path d="M1305 912L1449.9 856L1268 681Z" fill="#19181a" stroke="#19181a"></path><path d="M1436.9 692L1602.7 516L1449.9 541Z" fill="#111112" stroke="#111112"></path><path d="M1449.9 541L1418.9 355L1296 359Z" fill="#171718" stroke="#171718"></path><path d="M1292 161L1058.1 177L1088.1 320Z" fill="#09090b" stroke="#09090b"></path><path d="M770.4 884L938.3 943L954.3 693Z" fill="#171718" stroke="#171718"></path><path d="M954.3 693L938.3 943L1127.1 885Z" fill="#1c1b1d" stroke="#1c1b1d"></path><path d="M1127.1 885L1107.1 1090L1305 912Z" fill="#1e1d1f" stroke="#1e1d1f"></path><path d="M1674.7 706L1602.7 516L1436.9 692Z" fill="#0c0c0e" stroke="#0c0c0e"></path><path d="M1449.9 541L1602.7 516L1418.9 355Z" fill="#131314" stroke="#131314"></path><path d="M694.4 584L749.4 764L911.3 542Z" fill="#1a1a1b" stroke="#1a1a1b"></path><path d="M911.3 542L749.4 764L954.3 693Z" fill="#19181a" stroke="#19181a"></path><path d="M1292 161L1088.1 320L1296 359Z" fill="#151516" stroke="#151516"></path><path d="M1088.1 320L1058.1 177L952.3 398Z" fill="#1a1a1b" stroke="#1a1a1b"></path><path d="M739.4 356L694.4 584L911.3 542Z" fill="#171718" stroke="#171718"></path><path d="M938.3 943L1107.1 1090L1127.1 885Z" fill="#151516" stroke="#151516"></path><path d="M1305 912L1435.9 1082L1449.9 856Z" fill="#09090b" stroke="#09090b"></path><path d="M1420.9 162L1292 161L1418.9 355Z" fill="#151516" stroke="#151516"></path><path d="M1418.9 355L1292 161L1296 359Z" fill="#0f0f10" stroke="#0f0f10"></path><path d="M749.4 764L770.4 884L954.3 693Z" fill="#151516" stroke="#151516"></path><path d="M938.3 943L869.3 1099L1107.1 1090Z" fill="#1c1b1d" stroke="#1c1b1d"></path><path d="M739.4 356L911.3 542L952.3 398Z" fill="#171718" stroke="#171718"></path><path d="M749.4 764L591.6 870L770.4 884Z" fill="#1e1d1f" stroke="#1e1d1f"></path><path d="M1634.7 883L1674.7 706L1449.9 856Z" fill="#09090b" stroke="#09090b"></path><path d="M1449.9 856L1674.7 706L1436.9 692Z" fill="#171718" stroke="#171718"></path><path d="M1107.1 1090L1308 1118L1305 912Z" fill="#09090b" stroke="#09090b"></path><path d="M1826.6 381L1602.7 338L1602.7 516Z" fill="#171718" stroke="#171718"></path><path d="M1602.7 516L1602.7 338L1418.9 355Z" fill="#1a1a1b" stroke="#1a1a1b"></path><path d="M924.3 137L739.4 356L952.3 398Z" fill="#171718" stroke="#171718"></path><path d="M1612.7 1073L1634.7 883L1449.9 856Z" fill="#1a1a1b" stroke="#1a1a1b"></path><path d="M1602.7 338L1420.9 162L1418.9 355Z" fill="#151516" stroke="#151516"></path><path d="M1308 1118L1435.9 1082L1305 912Z" fill="#0c0c0e" stroke="#0c0c0e"></path><path d="M1058.1 177L924.3 137L952.3 398Z" fill="#151516" stroke="#151516"></path><path d="M920.3 0L924.3 137L1058.1 177Z" fill="#1a1a1b" stroke="#1a1a1b"></path><path d="M1128.1 0L1058.1 177L1292 161Z" fill="#171718" stroke="#171718"></path><path d="M770.4 884L869.3 1099L938.3 943Z" fill="#09090b" stroke="#09090b"></path><path d="M1107.1 1090L1243 1231L1308 1118Z" fill="#0c0c0e" stroke="#0c0c0e"></path><path d="M1111.1 1255L1243 1231L1107.1 1090Z" fill="#0c0c0e" stroke="#0c0c0e"></path><path d="M1308 1118L1500.9 1271L1435.9 1082Z" fill="#1a1a1b" stroke="#1a1a1b"></path><path d="M1809.6 712L1790.6 576L1674.7 706Z" fill="#1c1b1d" stroke="#1c1b1d"></path><path d="M1674.7 706L1790.6 576L1602.7 516Z" fill="#1c1b1d" stroke="#1c1b1d"></path><path d="M550.6 497L580.6 752L694.4 584Z" fill="#0f0f10" stroke="#0f0f10"></path><path d="M694.4 584L580.6 752L749.4 764Z" fill="#1a1a1b" stroke="#1a1a1b"></path><path d="M770.4 884L707.4 1061L869.3 1099Z" fill="#0f0f10" stroke="#0f0f10"></path><path d="M1435.9 1082L1612.7 1073L1449.9 856Z" fill="#111112" stroke="#111112"></path><path d="M1825.6 885L1809.6 712L1674.7 706Z" fill="#1e1d1f" stroke="#1e1d1f"></path><path d="M1500.9 1271L1612.7 1073L1435.9 1082Z" fill="#171718" stroke="#171718"></path><path d="M1242 0L1128.1 0L1292 161Z" fill="#09090b" stroke="#09090b"></path><path d="M1420.9 162L1242 0L1292 161Z" fill="#0c0c0e" stroke="#0c0c0e"></path><path d="M1825.6 885L1674.7 706L1634.7 883Z" fill="#131314" stroke="#131314"></path><path d="M935.3 1231L1111.1 1255L1107.1 1090Z" fill="#09090b" stroke="#09090b"></path><path d="M580.6 752L591.6 870L749.4 764Z" fill="#0f0f10" stroke="#0f0f10"></path><path d="M924.3 137L690.4 216L739.4 356Z" fill="#1a1a1b" stroke="#1a1a1b"></path><path d="M739.4 356L550.6 497L694.4 584Z" fill="#19181a" stroke="#19181a"></path><path d="M769.4 0L690.4 216L924.3 137Z" fill="#1a1a1b" stroke="#1a1a1b"></path><path d="M591.6 870L707.4 1061L770.4 884Z" fill="#111112" stroke="#111112"></path><path d="M869.3 1099L935.3 1231L1107.1 1090Z" fill="#1c1b1d" stroke="#1c1b1d"></path><path d="M575.6 366L550.6 497L739.4 356Z" fill="#1a1a1b" stroke="#1a1a1b"></path><path d="M370.7 1084L532.6 1121L591.6 870Z" fill="#0f0f10" stroke="#0f0f10"></path><path d="M1602.7 338L1674.7 197L1420.9 162Z" fill="#19181a" stroke="#19181a"></path><path d="M1420.9 162L1484.9 0L1242 0Z" fill="#0f0f10" stroke="#0f0f10"></path><path d="M1826.6 381L1674.7 197L1602.7 338Z" fill="#19181a" stroke="#19181a"></path><path d="M749.4 1242L935.3 1231L869.3 1099Z" fill="#131314" stroke="#131314"></path><path d="M690.4 216L575.6 366L739.4 356Z" fill="#1a1a1b" stroke="#1a1a1b"></path><path d="M1128.1 0L920.3 0L1058.1 177Z" fill="#1a1a1b" stroke="#1a1a1b"></path><path d="M1976.4 563L1826.6 381L1790.6 576Z" fill="#151516" stroke="#151516"></path><path d="M1790.6 576L1826.6 381L1602.7 516Z" fill="#131314" stroke="#131314"></path><path d="M1825.6 1046L1825.6 885L1634.7 883Z" fill="#0c0c0e" stroke="#0c0c0e"></path><path d="M1809.6 712L1976.4 563L1790.6 576Z" fill="#131314" stroke="#131314"></path><path d="M1602.7 0L1484.9 0L1420.9 162Z" fill="#151516" stroke="#151516"></path><path d="M1429.9 1440L1500.9 1271L1243 1231Z" fill="#151516" stroke="#151516"></path><path d="M1243 1231L1500.9 1271L1308 1118Z" fill="#1c1b1d" stroke="#1c1b1d"></path><path d="M1612.7 1073L1825.6 1046L1634.7 883Z" fill="#151516" stroke="#151516"></path><path d="M1826.6 381L1815.6 224L1674.7 197Z" fill="#1c1b1d" stroke="#1c1b1d"></path><path d="M1674.7 197L1602.7 0L1420.9 162Z" fill="#171718" stroke="#171718"></path><path d="M920.3 0L769.4 0L924.3 137Z" fill="#1e1d1f" stroke="#1e1d1f"></path><path d="M690.4 216L589.6 159L575.6 366Z" fill="#111112" stroke="#111112"></path><path d="M1818.6 0L1602.7 0L1674.7 197Z" fill="#09090b" stroke="#09090b"></path><path d="M532.6 1121L749.4 1242L707.4 1061Z" fill="#0c0c0e" stroke="#0c0c0e"></path><path d="M707.4 1061L749.4 1242L869.3 1099Z" fill="#0f0f10" stroke="#0f0f10"></path><path d="M956.3 1440L1136.1 1440L1111.1 1255Z" fill="#131314" stroke="#131314"></path><path d="M1654.7 1440L1601.7 1276L1500.9 1271Z" fill="#0c0c0e" stroke="#0c0c0e"></path><path d="M769.4 0L589.6 159L690.4 216Z" fill="#1c1b1d" stroke="#1c1b1d"></path><path d="M323.7 558L336.7 720L550.6 497Z" fill="#19181a" stroke="#19181a"></path><path d="M1841.6 1285L1825.6 1046L1612.7 1073Z" fill="#131314" stroke="#131314"></path><path d="M2013.4 685L1976.4 563L1809.6 712Z" fill="#1c1b1d" stroke="#1c1b1d"></path><path d="M1500.9 1271L1601.7 1276L1612.7 1073Z" fill="#171718" stroke="#171718"></path><path d="M1136.1 1440L1243 1231L1111.1 1255Z" fill="#151516" stroke="#151516"></path><path d="M2013.4 685L1809.6 712L1825.6 885Z" fill="#0f0f10" stroke="#0f0f10"></path><path d="M1826.6 381L1991.4 195L1815.6 224Z" fill="#1a1a1b" stroke="#1a1a1b"></path><path d="M956.3 1440L1111.1 1255L935.3 1231Z" fill="#0c0c0e" stroke="#0c0c0e"></path><path d="M591.6 870L532.6 1121L707.4 1061Z" fill="#09090b" stroke="#09090b"></path><path d="M322.7 897L591.6 870L580.6 752Z" fill="#1c1b1d" stroke="#1c1b1d"></path><path d="M1136.1 1440L1278 1440L1243 1231Z" fill="#151516" stroke="#151516"></path><path d="M1983.4 940L2013.4 685L1825.6 885Z" fill="#111112" stroke="#111112"></path><path d="M749.4 1242L956.3 1440L935.3 1231Z" fill="#171718" stroke="#171718"></path><path d="M721.4 1440L956.3 1440L749.4 1242Z" fill="#0f0f10" stroke="#0f0f10"></path><path d="M1278 1440L1429.9 1440L1243 1231Z" fill="#151516" stroke="#151516"></path><path d="M380.7 327L550.6 497L575.6 366Z" fill="#1a1a1b" stroke="#1a1a1b"></path><path d="M550.6 497L336.7 720L580.6 752Z" fill="#131314" stroke="#131314"></path><path d="M353.7 221L380.7 327L589.6 159Z" fill="#111112" stroke="#111112"></path><path d="M589.6 159L380.7 327L575.6 366Z" fill="#1e1d1f" stroke="#1e1d1f"></path><path d="M2181.3 540L2009.4 397L1976.4 563Z" fill="#1c1b1d" stroke="#1c1b1d"></path><path d="M1976.4 563L2009.4 397L1826.6 381Z" fill="#1a1a1b" stroke="#1a1a1b"></path><path d="M1815.6 224L1818.6 0L1674.7 197Z" fill="#09090b" stroke="#09090b"></path><path d="M1825.6 1046L1983.4 940L1825.6 885Z" fill="#171718" stroke="#171718"></path><path d="M2017.4 1060L1983.4 940L1825.6 1046Z" fill="#0c0c0e" stroke="#0c0c0e"></path><path d="M1841.6 1285L1612.7 1073L1601.7 1276Z" fill="#0c0c0e" stroke="#0c0c0e"></path><path d="M380.7 327L323.7 558L550.6 497Z" fill="#0f0f10" stroke="#0f0f10"></path><path d="M1991.4 195L1818.6 0L1815.6 224Z" fill="#1c1b1d" stroke="#1c1b1d"></path><path d="M769.4 0L547.6 0L589.6 159Z" fill="#19181a" stroke="#19181a"></path><path d="M202.9 740L322.7 897L336.7 720Z" fill="#09090b" stroke="#09090b"></path><path d="M336.7 720L322.7 897L580.6 752Z" fill="#0f0f10" stroke="#0f0f10"></path><path d="M2009.4 397L1991.4 195L1826.6 381Z" fill="#1a1a1b" stroke="#1a1a1b"></path><path d="M147.9 402L174.9 545L323.7 558Z" fill="#1c1b1d" stroke="#1c1b1d"></path><path d="M547.6 0L353.7 221L589.6 159Z" fill="#171718" stroke="#171718"></path><path d="M1654.7 1440L1841.6 1285L1601.7 1276Z" fill="#1e1d1f" stroke="#1e1d1f"></path><path d="M322.7 897L370.7 1084L591.6 870Z" fill="#09090b" stroke="#09090b"></path><path d="M532.6 1121L525.6 1291L749.4 1242Z" fill="#0f0f10" stroke="#0f0f10"></path><path d="M379.7 1274L525.6 1291L532.6 1121Z" fill="#0c0c0e" stroke="#0c0c0e"></path><path d="M581.6 1440L721.4 1440L749.4 1242Z" fill="#19181a" stroke="#19181a"></path><path d="M1841.6 1285L2017.4 1060L1825.6 1046Z" fill="#1a1a1b" stroke="#1a1a1b"></path><path d="M2218.3 753L2181.3 540L2013.4 685Z" fill="#19181a" stroke="#19181a"></path><path d="M1429.9 1440L1654.7 1440L1500.9 1271Z" fill="#1a1a1b" stroke="#1a1a1b"></path><path d="M323.7 558L202.9 740L336.7 720Z" fill="#19181a" stroke="#19181a"></path><path d="M322.7 897L145.9 1035L370.7 1084Z" fill="#171718" stroke="#171718"></path><path d="M174.9 545L202.9 740L323.7 558Z" fill="#0c0c0e" stroke="#0c0c0e"></path><path d="M2013.4 685L2181.3 540L1976.4 563Z" fill="#0c0c0e" stroke="#0c0c0e"></path><path d="M2009.4 397L2168.3 335L1991.4 195Z" fill="#0c0c0e" stroke="#0c0c0e"></path><path d="M2181.3 869L2013.4 685L1983.4 940Z" fill="#09090b" stroke="#09090b"></path><path d="M147.9 402L323.7 558L380.7 327Z" fill="#111112" stroke="#111112"></path><path d="M343.7 1440L581.6 1440L525.6 1291Z" fill="#171718" stroke="#171718"></path><path d="M525.6 1291L581.6 1440L749.4 1242Z" fill="#151516" stroke="#151516"></path><path d="M1841.6 1285L2031.4 1289L2017.4 1060Z" fill="#111112" stroke="#111112"></path><path d="M1654.7 1440L1787.6 1440L1841.6 1285Z" fill="#1a1a1b" stroke="#1a1a1b"></path><path d="M2181.3 540L2168.3 335L2009.4 397Z" fill="#19181a" stroke="#19181a"></path><path d="M1991.4 195L2022.4 0L1818.6 0Z" fill="#111112" stroke="#111112"></path><path d="M2235.3 1037L2181.3 869L2017.4 1060Z" fill="#151516" stroke="#151516"></path><path d="M2017.4 1060L2181.3 869L1983.4 940Z" fill="#1e1d1f" stroke="#1e1d1f"></path><path d="M167.9 1304L379.7 1274L370.7 1084Z" fill="#131314" stroke="#131314"></path><path d="M370.7 1084L379.7 1274L532.6 1121Z" fill="#1a1a1b" stroke="#1a1a1b"></path><path d="M2181.3 869L2218.3 753L2013.4 685Z" fill="#151516" stroke="#151516"></path><path d="M2181.3 540L2339.1 334L2168.3 335Z" fill="#0c0c0e" stroke="#0c0c0e"></path><path d="M2163.3 188L2022.4 0L1991.4 195Z" fill="#131314" stroke="#131314"></path><path d="M547.6 0L333.7 0L353.7 221Z" fill="#1e1d1f" stroke="#1e1d1f"></path><path d="M207.9 183L147.9 402L380.7 327Z" fill="#111112" stroke="#111112"></path><path d="M207.9 183L380.7 327L353.7 221Z" fill="#09090b" stroke="#09090b"></path><path d="M0 736L145.9 888L202.9 740Z" fill="#0f0f10" stroke="#0f0f10"></path><path d="M0 736L202.9 740L174.9 545Z" fill="#1e1d1f" stroke="#1e1d1f"></path><path d="M202.9 740L145.9 888L322.7 897Z" fill="#171718" stroke="#171718"></path><path d="M333.7 0L207.9 183L353.7 221Z" fill="#1e1d1f" stroke="#1e1d1f"></path><path d="M2339.1 334L2163.3 188L2168.3 335Z" fill="#0c0c0e" stroke="#0c0c0e"></path><path d="M2168.3 335L2163.3 188L1991.4 195Z" fill="#1c1b1d" stroke="#1c1b1d"></path><path d="M2040.4 1440L2031.4 1289L1841.6 1285Z" fill="#171718" stroke="#171718"></path><path d="M145.9 888L145.9 1035L322.7 897Z" fill="#1a1a1b" stroke="#1a1a1b"></path><path d="M2374.1 874L2380.1 753L2218.3 753Z" fill="#09090b" stroke="#09090b"></path><path d="M2217.3 1240L2235.3 1037L2017.4 1060Z" fill="#0c0c0e" stroke="#0c0c0e"></path><path d="M2163.3 188L2152.3 0L2022.4 0Z" fill="#111112" stroke="#111112"></path><path d="M2357.1 0L2152.3 0L2163.3 188Z" fill="#0f0f10" stroke="#0f0f10"></path><path d="M167.9 1304L343.7 1440L379.7 1274Z" fill="#19181a" stroke="#19181a"></path><path d="M379.7 1274L343.7 1440L525.6 1291Z" fill="#19181a" stroke="#19181a"></path><path d="M333.7 0L187.9 0L207.9 183Z" fill="#111112" stroke="#111112"></path><path d="M0 351L0 566L147.9 402Z" fill="#0f0f10" stroke="#0f0f10"></path><path d="M1787.6 1440L2040.4 1440L1841.6 1285Z" fill="#0c0c0e" stroke="#0c0c0e"></path><path d="M2031.4 1289L2217.3 1240L2017.4 1060Z" fill="#111112" stroke="#111112"></path><path d="M0 351L147.9 402L0 211Z" fill="#151516" stroke="#151516"></path><path d="M147.9 402L0 566L174.9 545Z" fill="#0f0f10" stroke="#0f0f10"></path><path d="M145.9 888L0 887L145.9 1035Z" fill="#151516" stroke="#151516"></path><path d="M0 566L0 736L174.9 545Z" fill="#1e1d1f" stroke="#1e1d1f"></path><path d="M2410.1 567L2181.3 540L2218.3 753Z" fill="#1c1b1d" stroke="#1c1b1d"></path><path d="M2410.1 567L2339.1 334L2181.3 540Z" fill="#19181a" stroke="#19181a"></path><path d="M2198.3 1440L2217.3 1240L2031.4 1289Z" fill="#171718" stroke="#171718"></path><path d="M2374.1 874L2218.3 753L2181.3 869Z" fill="#111112" stroke="#111112"></path><path d="M2374.1 874L2181.3 869L2235.3 1037Z" fill="#131314" stroke="#131314"></path><path d="M0 736L0 887L145.9 888Z" fill="#19181a" stroke="#19181a"></path><path d="M145.9 1035L167.9 1304L370.7 1084Z" fill="#0c0c0e" stroke="#0c0c0e"></path><path d="M0 211L147.9 402L207.9 183Z" fill="#09090b" stroke="#09090b"></path><path d="M2421.1 1055L2374.1 874L2235.3 1037Z" fill="#1c1b1d" stroke="#1c1b1d"></path><path d="M0 1258L167.9 1304L145.9 1035Z" fill="#1a1a1b" stroke="#1a1a1b"></path><path d="M2380.1 753L2410.1 567L2218.3 753Z" fill="#171718" stroke="#171718"></path><path d="M2560 554L2410.1 567L2560 702Z" fill="#09090b" stroke="#09090b"></path><path d="M0 0L0 211L207.9 183Z" fill="#0f0f10" stroke="#0f0f10"></path><path d="M0 887L0 1069L145.9 1035Z" fill="#151516" stroke="#151516"></path><path d="M0 1440L174.9 1440L167.9 1304Z" fill="#1e1d1f" stroke="#1e1d1f"></path><path d="M167.9 1304L174.9 1440L343.7 1440Z" fill="#151516" stroke="#151516"></path><path d="M2040.4 1440L2198.3 1440L2031.4 1289Z" fill="#111112" stroke="#111112"></path><path d="M2217.3 1240L2421.1 1055L2235.3 1037Z" fill="#09090b" stroke="#09090b"></path><path d="M2560 323L2397.1 146L2339.1 334Z" fill="#1a1a1b" stroke="#1a1a1b"></path><path d="M2339.1 334L2397.1 146L2163.3 188Z" fill="#151516" stroke="#151516"></path><path d="M2373.1 1299L2421.1 1055L2217.3 1240Z" fill="#0f0f10" stroke="#0f0f10"></path><path d="M2560 702L2410.1 567L2380.1 753Z" fill="#131314" stroke="#131314"></path><path d="M2397.1 146L2357.1 0L2163.3 188Z" fill="#1a1a1b" stroke="#1a1a1b"></path><path d="M187.9 0L0 0L207.9 183Z" fill="#1a1a1b" stroke="#1a1a1b"></path><path d="M0 1069L0 1258L145.9 1035Z" fill="#131314" stroke="#131314"></path><path d="M2198.3 1440L2373.1 1299L2217.3 1240Z" fill="#0f0f10" stroke="#0f0f10"></path><path d="M2410.1 567L2560 323L2339.1 334Z" fill="#1e1d1f" stroke="#1e1d1f"></path><path d="M2397.1 146L2560 0L2357.1 0Z" fill="#1a1a1b" stroke="#1a1a1b"></path><path d="M2560 702L2380.1 753L2560 857Z" fill="#09090b" stroke="#09090b"></path><path d="M2380.1 753L2374.1 874L2560 857Z" fill="#0c0c0e" stroke="#0c0c0e"></path><path d="M2560 857L2374.1 874L2421.1 1055Z" fill="#09090b" stroke="#09090b"></path><path d="M2560 1074L2560 857L2421.1 1055Z" fill="#151516" stroke="#151516"></path><path d="M2560 554L2560 323L2410.1 567Z" fill="#1e1d1f" stroke="#1e1d1f"></path><path d="M2198.3 1440L2347.1 1440L2373.1 1299Z" fill="#09090b" stroke="#09090b"></path><path d="M2560 1256L2560 1074L2421.1 1055Z" fill="#09090b" stroke="#09090b"></path><path d="M0 1258L0 1440L167.9 1304Z" fill="#1c1b1d" stroke="#1c1b1d"></path><path d="M2560 1256L2421.1 1055L2373.1 1299Z" fill="#131314" stroke="#131314"></path><path d="M2560 323L2560 156L2397.1 146Z" fill="#0c0c0e" stroke="#0c0c0e"></path><path d="M2560 156L2560 0L2397.1 146Z" fill="#131314" stroke="#131314"></path><path d="M2560 1440L2560 1256L2373.1 1299Z" fill="#131314" stroke="#131314"></path><path d="M2347.1 1440L2560 1440L2373.1 1299Z" fill="#19181a" stroke="#19181a"></path></g></svg>