<?xml version="1.0" encoding="UTF-8"?><svg id="Livello_2" xmlns="http://www.w3.org/2000/svg" viewBox="-20 -20 309.4 308"><g id="layer"><polygon points="252.5 140.9 269.4 185.3 227.2 206 210.2 161.6 252.5 140.9" style="fill:#b0c52f;"/><polygon points="227.2 206 203 198 186 153.6 210.2 161.6 227.2 206" style="fill:#768716;"/><polygon points="210.2 161.6 186 153.6 228.2 133 252.5 140.9 210.2 161.6" style="fill:#889b1e;"/><polygon points="235.5 96.5 252.5 140.9 210.2 161.6 193.2 117.2 235.5 96.5" style="fill:#b6151d;"/><polygon points="210.2 161.6 186 153.6 169 109.3 193.2 117.2 210.2 161.6" style="fill:#7a0e04;"/><polygon points="193.2 117.2 169 109.3 211.2 88.6 235.5 96.5 193.2 117.2" style="fill:#8c100b;"/><polygon points="176.2 72.9 218.6 52.3 235.5 96.5 193.2 117.2 176.2 72.9" style="fill:#6699cd;"/><polygon points="176.2 72.9 152.1 64.9 194.3 44.3 218.6 52.3 176.2 72.9" style="fill:#4e78a1;"/><polygon points="193.2 117.2 169 109.3 152.1 64.9 176.2 72.9 193.2 117.2" style="fill:#42688d;"/><polygon points="201.6 7.9 218.6 52.3 176.3 73 159.3 28.6 201.6 7.9" style="fill:#cd9421;"/><polygon points="176.3 73 152.1 65 135.1 20.6 159.3 28.6 176.3 73" style="fill:#8a6409;"/><polygon points="159.3 28.6 135.1 20.6 177.4 0 201.6 7.9 159.3 28.6" style="fill:#9f730f;"/><polygon points="167.9 182.3 143.7 174.3 185.9 153.6 210.2 161.6 167.9 182.3" style="fill:#9f730f;"/><polygon points="184.8 226.7 160.7 218.7 143.7 174.3 167.9 182.3 184.8 226.7" style="fill:#8a6409;"/><polygon points="210.2 161.6 227.1 206 184.8 226.7 167.9 182.3 210.2 161.6" style="fill:#cd9421;"/><polygon points="193.2 117.2 210.2 161.6 167.9 182.3 150.9 137.9 193.2 117.2" style="fill:#8c1815;"/><polygon points="167.9 182.3 143.7 174.3 126.7 130 150.9 137.9 167.9 182.3" style="fill:#6c0f05;"/><polygon points="150.9 137.9 126.7 130 168.9 109.3 193.2 117.2 150.9 137.9" style="fill:#75120a;"/><polygon points="125.7 203 101.4 195 143.7 174.3 167.9 182.3 125.7 203" style="fill:#8f005a;"/><polygon points="142.6 247.3 118.4 239.4 101.4 195 125.7 203 142.6 247.3" style="fill:#7d004c;"/><polygon points="167.9 182.3 184.8 226.7 142.6 247.3 125.7 203 167.9 182.3" style="fill:#b80076;"/><polygon points="134 93.5 176.2 73 193.2 117.2 150.9 137.9 134 93.5" style="fill:#63a884;"/><polygon points="134 93.5 109.7 85.6 152 65 176.2 73 134 93.5" style="fill:#4c8466;"/><polygon points="150.9 137.9 126.7 130 109.7 85.6 134 93.5 150.9 137.9" style="fill:#407358;"/><polygon points="159.2 28.6 176.2 73 134 93.7 117 49.3 159.2 28.6" style="fill:#b80076;"/><polygon points="134 93.7 109.7 85.7 92.8 41.3 117 49.3 134 93.7" style="fill:#7d004c;"/><polygon points="117 49.3 92.8 41.3 135.1 20.6 159.2 28.6 117 49.3" style="fill:#8f005a;"/><polygon points="100.4 268 76.2 260 59.2 215.7 83.4 223.6 100.4 268" style="fill:gray;"/><polygon points="83.4 223.6 59.2 215.7 101.4 195 125.7 203 83.4 223.6" style="fill:#9e9e9e;"/><polygon points="125.7 203 101.4 195 84.5 150.6 108.7 158.6 125.7 203" style="fill:gray;"/><polygon points="108.7 158.6 84.5 150.6 126.7 130 150.9 137.9 108.7 158.6" style="fill:#9e9e9e;"/><polygon points="83.4 223.6 59.2 215.7 42.2 171.3 66.4 179.3 83.4 223.6" style="fill:gray;"/><polygon points="66.4 179.3 42.2 171.3 84.5 150.6 108.7 158.6 66.4 179.3" style="fill:#9e9e9e;"/><polygon points="134 93.7 150.9 137.9 108.7 158.6 91.7 114.3 134 93.7" style="fill:#b0c52f;"/><polygon points="108.7 158.6 84.5 150.6 67.5 106.4 91.7 114.3 108.7 158.6" style="fill:#768716;"/><polygon points="91.7 114.3 67.5 106.4 109.7 85.7 134 93.7 91.7 114.3" style="fill:#889b1e;"/><polygon points="117 49.3 134 93.7 91.7 114.3 74.8 69.9 117 49.3" style="fill:#b6151d;"/><polygon points="91.7 114.3 67.5 106.4 50.6 62 74.8 69.9 91.7 114.3" style="fill:#7a0e04;"/><polygon points="74.8 69.9 50.6 62 92.8 41.3 117 49.3 74.8 69.9" style="fill:#8c100b;"/><polygon points="49.5 134.9 25.2 126.9 67.5 106.4 91.7 114.3 49.5 134.9" style="fill:#9e9e9e;"/><polygon points="66.4 179.3 42.2 171.3 25.2 126.9 49.5 134.9 66.4 179.3" style="fill:gray;"/><polygon points="74.8 69.9 91.7 114.3 49.5 135 32.6 90.6 74.8 69.9" style="fill:#8c1815;"/><polygon points="49.5 135 25.2 127 8.3 82.7 32.6 90.6 49.5 135" style="fill:#6c0f05;"/><polygon points="32.6 90.6 8.3 82.7 50.6 62 74.8 69.9 32.6 90.6" style="fill:#75120a;"/><polygon points="167.9 182.3 150.9 137.9 108.7 158.6 91.7 114.3 49.5 134.9 66.4 179.3 24.2 199.9 41.2 244.3 83.4 223.6 100.4 268 142.6 247.3 125.7 203 167.9 182.3" style="fill:#e6e6e6;"/><polygon points="41.2 244.3 16.9 236.3 0 192 24.2 199.9 41.2 244.3" style="fill:gray;"/><polygon points="24.2 199.9 0 192 42.2 171.3 66.4 179.3 24.2 199.9" style="fill:#9e9e9e;"/></g></svg>